<?xml version="1.0" standalone="no"?>
<!DOCTYPE svg PUBLIC "-//W3C//DTD SVG 20010904//EN"
 "http://www.w3.org/TR/2001/REC-SVG-20010904/DTD/svg10.dtd">
<svg version="1.0" xmlns="http://www.w3.org/2000/svg"
 width="1000.000000pt" height="1000.000000pt" viewBox="0 0 1000.000000 1000.000000"
 preserveAspectRatio="xMidYMid meet">

<g transform="translate(0.000000,1000.000000) scale(0.100000,-0.100000)"
fill="#000000" stroke="none">
<path d="M3277 7368 c6 -11 92 -121 422 -544 31 -40 94 -120 141 -180 129
-164 158 -210 166 -260 10 -67 1 -103 -55 -216 -78 -158 -99 -311 -66 -469 20
-96 71 -188 156 -284 40 -44 148 -168 243 -275 94 -107 173 -197 176 -200 12
-11 366 -413 378 -430 11 -15 9 -27 -13 -76 -41 -93 -67 -225 -68 -344 -2
-289 125 -558 347 -736 338 -271 806 -276 1155 -14 183 138 310 345 351 570
14 78 14 255 0 342 -45 283 -255 555 -525 679 -33 15 -91 37 -130 48 -74 23
-265 46 -302 36 -21 -5 -30 11 -112 177 -49 101 -184 376 -301 613 -211 428
-212 429 -283 500 -55 54 -93 82 -157 113 -122 59 -213 75 -380 68 -128 -6
-137 -5 -185 18 -27 13 -62 36 -76 52 -14 16 -88 139 -164 274 -76 135 -170
301 -210 370 -39 69 -77 137 -85 153 l-13 27 -209 0 c-165 0 -208 -3 -201 -12z
m1572 -1495 c16 -16 75 -95 132 -178 56 -82 121 -177 144 -210 23 -33 108
-156 189 -273 81 -118 146 -216 143 -218 -2 -3 -30 -14 -62 -25 -32 -11 -76
-29 -98 -40 -21 -11 -45 -19 -54 -17 -8 2 -136 196 -284 432 -296 472 -295
471 -240 527 40 39 89 40 130 2z m-340 -226 c7 -6 24 -28 37 -47 13 -19 45
-65 71 -101 378 -526 469 -655 476 -668 5 -12 -15 -39 -76 -103 l-84 -87 -72
112 c-86 133 -199 306 -284 437 -34 52 -64 99 -67 105 -3 5 -35 55 -71 110
-85 129 -89 137 -89 178 0 39 37 83 73 89 25 4 64 -7 86 -25z m1286 -1032
c162 -34 308 -145 379 -289 47 -95 70 -201 61 -284 -30 -288 -262 -501 -545
-501 -152 0 -273 51 -384 162 -120 120 -165 246 -153 428 15 231 193 433 427
483 85 19 130 19 215 1z"/>
<path d="M1420 3890 l0 -1220 205 0 205 0 0 535 0 535 308 0 c289 0 309 1 340
20 65 40 73 66 70 240 l-3 155 -358 3 -357 2 2 268 3 267 358 3 357 2 0 205 0
205 -565 0 -565 0 0 -1220z"/>
<path d="M8190 4720 c0 -214 -3 -390 -6 -390 -3 0 -25 14 -49 30 -129 89 -305
135 -485 127 -187 -8 -319 -49 -466 -142 -197 -126 -350 -337 -406 -561 -31
-127 -32 -323 -1 -450 45 -182 124 -315 268 -452 157 -150 322 -228 526 -252
212 -24 406 19 566 126 64 43 88 54 91 43 9 -29 98 -105 138 -117 23 -6 80
-12 128 -12 l86 0 0 1220 0 1220 -195 0 -195 0 0 -390z m-279 -671 c149 -71
258 -204 299 -364 25 -99 25 -161 0 -259 -47 -183 -178 -324 -360 -387 -96
-33 -238 -31 -338 4 -143 51 -251 151 -320 296 -32 67 -36 84 -40 181 -2 58 0
129 6 157 37 172 178 329 353 393 46 17 74 20 189 18 132 -3 137 -4 211 -39z"/>
<path d="M3492 4469 c-108 -23 -251 -86 -338 -149 -183 -134 -323 -342 -370
-551 -23 -100 -23 -308 -1 -416 36 -176 121 -327 264 -464 84 -81 129 -115
213 -161 244 -134 598 -138 855 -11 155 77 339 261 417 418 128 255 127 589
-2 845 -106 209 -316 393 -533 464 -144 48 -349 58 -505 25z m434 -424 c334
-161 416 -599 161 -859 -116 -118 -230 -168 -387 -169 -127 -1 -226 31 -325
106 -150 114 -215 246 -215 434 0 154 41 261 139 366 98 105 205 157 341 166
129 8 199 -3 286 -44z"/>
</g>
</svg>
